<!DOCTYPE svg PUBLIC "-//W3C//DTD SVG 1.1//EN" "http://www.w3.org/Graphics/SVG/1.1/DTD/svg11.dtd">
<!-- Uploaded to: SVG Repo, www.svgrepo.com, Transformed by: SVG Repo Mixer Tools -->
<svg width="800px" height="800px" viewBox="-4.8 -4.8 57.60 57.60" xmlns="http://www.w3.org/2000/svg" fill="#000000" stroke="#000000" stroke-width="0.384" transform="rotate(0)matrix(1, 0, 0, 1, 0, 0)">
<g id="SVGRepo_bgCarrier" stroke-width="0" transform="translate(5.280000000000001,5.280000000000001), scale(0.78)">
<path transform="translate(-4.8, -4.8), scale(1.7999999999999998)" d="M16,30.04736936624561C17.940102871937736,29.929098755612674,19.918214099385278,29.51391543626065,21.539343426164823,28.44156903845077C23.099284535074908,27.40969748983202,23.61956331573903,25.36676304277396,24.993855589789696,24.09810394687738C26.523814133519462,22.685743665518558,29.02024929062032,22.370862925105722,30.065985836054278,20.57031584506712C31.10282833291438,18.78508251996928,31.087835611982424,16.469747643994694,30.587615227153954,14.466779857200049C30.099573632070314,12.512578022935314,28.327354325062736,11.208392853066535,27.295875918555716,9.47832299768925C26.278485915007465,7.771883226195076,26.242171072487512,5.261735274431892,24.514592491435867,4.280668834608072C22.737609439720767,3.2715463233112714,20.47121998997052,4.7810161445403825,18.453561094241596,4.456902600586105C16.557340116073135,4.15229665224884,15.036641462398133,2.57100077160982,13.11991069017083,2.4502451149906435C11.04693701391852,2.3196460235286573,8.779074524847093,2.527535567163593,7.093465537011811,3.741206991089621C5.407771418988022,4.954939710415622,4.985125150793346,7.242073505876472,3.9575775017876698,9.047304128961898C2.9354171706339773,10.84307012899835,0.854127290311594,12.364501575878549,1.0123408043039923,14.424733541813776C1.178412885793966,16.587298561079333,4.097575166865916,17.58678585535189,4.771671090254461,19.648305218557677C5.4440201123422325,21.70448221025192,3.752203370625674,24.185336098453647,4.819293887699381,26.067153001621044C5.84202941000858,27.87074975612041,8.198263074313706,28.440420056325618,10.151574465982492,29.135778818843697C12.030856324352442,29.804783829018945,14.00888603287074,30.168749664238234,16,30.04736936624561" fill="#7fbd8a" strokewidth="0"/>
</g>
<g id="SVGRepo_tracerCarrier" stroke-linecap="round" stroke-linejoin="round" stroke="#CCCCCC" stroke-width="0.4800000000000001">
<defs>
<style>.a{fill:none;stroke:#000000;stroke-linecap:round;stroke-linejoin:round;}</style>
</defs>
<polygon class="a" points="40.86 14.3 23.89 4.5 7.03 14.23 24 24.03 40.86 14.3"/>
<polygon class="a" points="24 24.03 7.03 14.23 7.03 33.7 24 43.5 24 24.03"/>
<polygon class="a" points="40.86 14.3 24 24.03 24 43.5 40.86 33.77 40.86 14.3"/>
</g>
<g id="SVGRepo_iconCarrier">
<defs>
<style>.a{fill:none;stroke:#000000;stroke-linecap:round;stroke-linejoin:round;}</style>
</defs>
<polygon class="a" points="40.86 14.3 23.89 4.5 7.03 14.23 24 24.03 40.86 14.3"/>
<polygon class="a" points="24 24.03 7.03 14.23 7.03 33.7 24 43.5 24 24.03"/>
<polygon class="a" points="40.86 14.3 24 24.03 24 43.5 40.86 33.77 40.86 14.3"/>
</g>
</svg>